<?xml version="1.0" encoding="UTF-8"?>
<!DOCTYPE svg PUBLIC "-//W3C//DTD SVG 1.1//EN" "http://www.w3.org/Graphics/SVG/1.1/DTD/svg11.dtd">
<!-- Creator: CorelDRAW -->
<svg xmlns="http://www.w3.org/2000/svg" xml:space="preserve" fill="#FFFFFF" color="#FFFFFF" width="1.70666in" height="1.70666in" version="1.1" style="shape-rendering:geometricPrecision; text-rendering:geometricPrecision; image-rendering:optimizeQuality; fill-rule:evenodd; clip-rule:evenodd"
viewBox="0 0 1706.66 1706.66"
 xmlns:xlink="http://www.w3.org/1999/xlink"
 xmlns:xodm="http://www.corel.com/coreldraw/odm/2003">
 <defs>
  <style type="text/css">
   <![CDATA[
    .fil0 {fill:white}

   ]]>

  </style>
 </defs>
 <g id="Layer_x0020_1">
  <metadata id="CorelCorpID_0Corel-Layer"/>
  <path class="fil0" d="M1590.52 749.87l-1474.39 0c-11.04,0 -20,-8.96 -20,-20l0 -138.89c0,-11.04 8.96,-20 20,-20l1474.39 0c11.04,0 20,8.96 20,20l0 138.89c0.02,11.05 -8.96,20 -20,20zm-1454.39 -40l1434.37 0 0 -98.89 -1434.37 0 0 98.89z"/>
  <path class="fil0" d="M1590.52 1567.79l-1474.37 0c-11.04,0 -20,-8.97 -20,-20l0 -138.89c0,-11.04 8.96,-20 20,-20l1474.37 -0c11.04,0 20,8.97 20,20l0 138.89c0.02,11.04 -8.96,20 -20,20zm-1454.37 -40l1434.37 0 0 -98.88 -1434.37 0 0 98.88z"/>
  <path class="fil0" d="M1590.52 610.98l-1474.39 0c-18.98,0 -27.24,-24.18 -12.25,-35.8l737.19 -571c7.22,-5.57 17.28,-5.57 24.5,0l737.2 571c15,11.62 6.71,35.8 -12.25,35.8zm-1415.9 -40l1357.41 0 -678.71 -525.7 -678.7 525.7z"/>
  <path class="fil0" d="M1662.39 1706.66l-1618.13 0c-11.04,0 -20,-8.97 -20,-20l0 -138.87c0,-11.04 8.96,-20 20,-20l1618.13 0c11.04,0 20,8.97 20,20l0 138.88c0,11.04 -8.96,20 -20,20zm-1598.12 -40l1578.12 0 0 -98.86 -1578.12 0 0 98.86z"/>
  <path class="fil0" d="M1000.72 1428.91l-294.81 0c-11.04,0 -20,-8.97 -20,-20 0,-136.87 -13.3,-122.89 62.93,-122.89l0 -433.27c-76.23,0 -62.93,13.98 -62.93,-122.89 0,-11.04 8.96,-20 20,-20l294.81 0c11.04,0 20,8.96 20,20 0,132.93 11.43,122.89 -52.13,122.89l0 433.26c63.72,0 52.03,-9.94 52.13,122.89 0.02,11.06 -8.95,20.02 -20,20.02zm-274.81 -40l254.81 0 0 -62.88c-21.39,0 -52.13,5.26 -52.13,-20l0 -473.27c0,-25.26 30.74,-20 52.13,-20l0 -62.89 -254.81 -0.01 0 62.89c28.22,0 62.93,-6.41 62.93,20l0 473.26c0,26.41 -34.71,20 -62.93,20l0 62.89z"/>
  <path class="fil0" d="M1505.81 1428.91l-294.83 0c-11.04,0 -20,-8.97 -20,-20 0,-136.87 -13.3,-122.89 62.93,-122.89l0 -433.27c-76.23,0 -62.93,13.98 -62.93,-122.89 0,-11.04 8.97,-20 20,-20l294.83 0c11.04,0 20,8.96 20,20 0,132.93 11.43,122.89 -52.13,122.89l0 433.26c63.56,0 52.13,-10.04 52.13,122.89 0,11.06 -8.97,20.02 -20,20.02zm-274.83 -40l254.81 0 0 -62.88c-21.39,0 -52.12,5.26 -52.12,-20l0 -473.27c0,-25.26 30.74,-20 52.12,-20l0 -62.89 -254.81 -0.01 0 62.89c28.23,0 62.93,-6.41 62.93,20l0 473.26c0,26.41 -34.73,20 -62.93,20l0 62.89z"/>
  <path class="fil0" d="M495.68 1428.91l-294.83 0c-11.04,0 -20,-8.97 -20,-20 0,-136.87 -13.3,-122.89 62.93,-122.89l0 -433.27c-76.23,0 -62.93,13.98 -62.93,-122.89 0,-11.04 8.96,-20 20,-20l294.83 0c11.04,0 20,8.96 20,20 0,132.94 11.43,122.89 -52.13,122.89l0 433.26c63.41,0 52.22,-10.15 52.13,122.89 -0.02,11.06 -8.96,20.02 -20,20.02zm-274.83 -40l254.83 0 0 -62.88c-21.39,0 -52.13,5.26 -52.13,-20l0 -473.27c0,-25.26 30.72,-20 52.13,-20l0 -62.89 -254.83 -0.01 0 62.89c28.23,0 62.93,-6.41 62.93,20l0 473.26c0,26.41 -34.71,20 -62.93,20l0 62.89z"/>
  <path class="fil0" d="M853.32 514.36c-74.6,0 -135.28,-60.69 -135.28,-135.3 0,-74.6 60.69,-135.29 135.28,-135.29 74.6,0 135.3,60.69 135.3,135.29 0,74.6 -60.69,135.3 -135.3,135.3zm0 -230.59c-52.54,0 -95.28,42.75 -95.28,95.29 0,52.54 42.75,95.3 95.28,95.3 52.54,0 95.28,-42.75 95.28,-95.3 0,-52.54 -42.74,-95.29 -95.28,-95.29z"/>
 </g>
</svg>
